<svg width="45" height="62" viewBox="0 0 45 62" fill="none" xmlns="http://www.w3.org/2000/svg">
<g id="Bucket" filter="url(#filter0_i_59_53)">
<path d="M4.6875 55.0854C3.6875 54.3178 1.14583 33.8753 3.33791e-09 23C0.9375 23.9596 9.0625 27.2575 21.875 27.2575C34.6875 27.2575 43.4375 25.0258 45 23L41.25 53.4861C39.0625 57.6443 33.4375 61.8025 21.875 61.4827C10.3125 61.1628 5.9375 56.045 4.6875 55.0854Z" fill="#EB9C3F"/>
<path d="M1.67575 20.5444C0.471338 20.1068 -0.215992 18.8638 0.0611109 17.6127C2.29291 7.53621 11.2808 0 22.0288 0C32.9133 0 41.9926 7.72867 44.0783 17.9975C44.3147 19.1618 43.7227 20.3268 42.6128 20.7507C40.5603 21.5345 37.5723 22.2499 33.8222 22.7591C33.6667 22.7802 33.5288 22.6569 33.5288 22.5C33.5288 16.1487 28.3801 11 22.0288 11C15.6776 11 10.5288 16.1487 10.5288 22.5C10.5288 22.6136 10.427 22.7014 10.3148 22.6835C6.62087 22.0913 3.69805 21.2791 1.67575 20.5444Z" fill="#EB9C3F"/>
</g>
<defs>
<filter id="filter0_i_59_53" x="0" y="0" width="45" height="65.5" filterUnits="userSpaceOnUse" color-interpolation-filters="sRGB">
<feFlood flood-opacity="0" result="BackgroundImageFix"/>
<feBlend mode="normal" in="SourceGraphic" in2="BackgroundImageFix" result="shape"/>
<feColorMatrix in="SourceAlpha" type="matrix" values="0 0 0 0 0 0 0 0 0 0 0 0 0 0 0 0 0 0 127 0" result="hardAlpha"/>
<feOffset dy="4"/>
<feGaussianBlur stdDeviation="2"/>
<feComposite in2="hardAlpha" operator="arithmetic" k2="-1" k3="1"/>
<feColorMatrix type="matrix" values="0 0 0 0 0 0 0 0 0 0 0 0 0 0 0 0 0 0 0.25 0"/>
<feBlend mode="normal" in2="shape" result="effect1_innerShadow_59_53"/>
</filter>
</defs>
</svg>
