<svg width="130" height="120" viewBox="0 0 130 120" fill="none" xmlns="http://www.w3.org/2000/svg">
<rect width="130" height="120" fill="#1E1E1E"/>
<g id="Frame 3">
<g id="Catlogo">
<rect id="Rectangle 30" width="130" height="120" fill="#F1DDA8"/>
<rect id="Rectangle 31" x="46" y="29" width="63" height="31" fill="white"/>
<path id="gato" fill-rule="evenodd" clip-rule="evenodd" d="M44.5066 100.445V109.415H111.713V100.445H94.9116V73.5354H86.5108V64.5656H111.713V46.6258H120.114V10.7463H111.713V19.7161H103.312V28.686H52.9074V19.7161H44.5066V10.7463H36.1058V46.6258H44.5066V64.5656H61.3083V73.5354H52.9074V91.4752H36.1058V82.5053H27.705V73.5354H19.3041V64.5656H27.705V28.686H10.9033V37.6559H19.3041V46.6258H10.9033V82.5053H19.3041V91.4752H27.705V100.445H44.5066ZM69.7091 46.6258V55.5957H52.9074V46.6258H69.7091ZM103.312 37.6559V55.5957H86.5108V37.6559H103.312Z" fill="#F36210"/>
</g>
</g>
</svg>
