<svg width="53" height="53" viewBox="0 0 53 53" fill="none" xmlns="http://www.w3.org/2000/svg">
<g id="DeleteFrame">
<path id="Rectangle 18" d="M5.3033 15.9099C2.37437 12.981 2.37437 8.23223 5.3033 5.3033C8.23223 2.37436 12.981 2.37436 15.9099 5.3033L47.0226 36.416C49.9515 39.3449 49.9515 44.0937 47.0226 47.0226C44.0937 49.9515 39.3449 49.9515 36.416 47.0226L5.3033 15.9099Z" fill="#F36210"/>
<path id="Rectangle 19" d="M47.0226 15.9099C49.9516 12.981 49.9516 8.23223 47.0226 5.3033C44.0937 2.37436 39.345 2.37436 36.416 5.3033L5.30333 36.416C2.3744 39.3449 2.3744 44.0937 5.30333 47.0226C8.23226 49.9515 12.981 49.9515 15.9099 47.0226L47.0226 15.9099Z" fill="#F36210"/>
</g>
</svg>
