<svg width="253" height="134" viewBox="0 0 253 134" fill="none" xmlns="http://www.w3.org/2000/svg">
<g filter="url(#filter0_d_110_2)">
<path d="M40.5265 25.6944C46.2605 24.5476 55.5377 23.612 59.9515 23.2447L60.4084 33.7549C56.8605 34.1276 49.6192 35.0625 42.3504 36.2102C35.0818 37.3579 26.6443 39.8065 22.8176 41.0498L21 31.0527L21.2114 30.9882C25.4444 29.698 34.8618 26.8274 40.5265 25.6944Z" fill="#F1DDA8"/>
<path d="M31.3688 79.0725C30.5186 70.4233 28.5646 51.0959 27.0086 42.5874L39.4284 39.8274V47.2869L40.0045 47.1983C42.1713 46.865 47.2021 46.0987 49.9991 45.6991C52.5154 45.3396 56.0602 45.2244 57.9284 45.2067V55.7045C56.2076 55.708 55.0024 55.7484 50.8732 56.2072C45.0105 56.8586 42.8497 57.21 40.3304 57.7138L39.8822 57.8035L41.885 76.3292L31.3688 79.0725Z" fill="#F1DDA8"/>
<path d="M64.9037 61.7041L62.9521 23.1586L72.9284 22.2516V38.7041C72.9284 46.0451 73.2389 56.7659 73.4105 61.7041H64.9037Z" fill="#F1DDA8"/>
<path d="M75.6427 27.5184C75.4413 27.015 75.429 26.5062 75.4285 25.78C76.3991 22.6938 78.2598 21.1761 80.0362 21.0146C81.8106 20.8533 83.77 22.024 84.9669 24.8964C85.5476 26.29 85.429 27.272 85.0082 27.9692C84.5724 28.6911 83.7491 29.2149 82.716 29.5396C81.6901 29.862 80.5187 29.9675 79.4842 29.9005C78.4257 29.8319 77.6092 29.5897 77.2284 29.3041C76.2685 28.5842 75.8459 28.0265 75.6427 27.5184Z" fill="#F1DDA8"/>
<path d="M76.3477 60.4995L75.8662 34.4995H85.1694V60.4995H76.3477Z" fill="#F1DDA8"/>
<path d="M47.7856 77.7568C55.1379 65.5036 66.8837 65.0035 72.8153 65.4978C75.6805 65.7366 77.9548 67.0495 79.5796 68.5539C81.2185 70.0714 82.1518 71.7412 82.3717 72.6208C82.597 73.5221 82.6089 75.1916 82.2403 77.1574C81.8936 79.0066 81.2194 81.0673 80.1209 82.9252L71.0521 80.658L71.1161 80.5186C71.266 80.1914 71.4533 79.7731 71.6359 79.2997C71.9977 78.3615 72.3569 77.1683 72.3569 75.9995C72.3569 75.475 72.2245 75.0098 71.9655 74.6176C71.7081 74.2277 71.3437 73.9372 70.9203 73.7301C70.0861 73.322 68.9823 73.2165 67.8153 73.3137C65.4729 73.5089 62.633 74.5424 60.5569 76.0995C59.0009 77.2664 57.9618 78.3705 57.3814 79.4046C56.7953 80.4489 56.6665 81.4461 56.9848 82.3405C57.298 83.2204 58.0119 83.9097 58.9257 84.4211C59.842 84.9339 60.9986 85.2913 62.2788 85.4934C62.6514 85.5523 63.0279 85.611 63.4075 85.6702C67.8957 86.3706 72.814 87.1381 76.7794 88.8942C78.9208 89.8426 80.7527 91.0669 82.0783 92.6977C83.398 94.3215 84.237 96.3738 84.3574 99.0223C84.4739 101.584 83.3291 103.707 81.3018 105.474C79.2625 107.252 76.3507 108.648 73.0175 109.711C66.5093 111.786 58.5412 112.547 52.7715 112.504L50.9585 102.986C51.5052 102.974 52.0946 102.964 52.7168 102.953L52.7186 102.953C55.8793 102.897 59.888 102.827 63.4653 102.497C65.736 102.288 67.8639 101.972 69.5085 101.478C70.3303 101.232 71.0546 100.934 71.6213 100.568C72.186 100.203 72.6361 99.7431 72.8312 99.1577C73.0054 98.6352 72.9456 98.1075 72.5842 97.6186C72.25 97.1664 71.6788 96.7756 70.8954 96.4071C69.3212 95.6666 66.6445 94.907 62.4617 94.0107C61.6316 93.8328 60.6193 93.6951 59.5361 93.5477L59.1883 93.5003C57.9647 93.333 56.6508 93.1452 55.3498 92.8674C52.7294 92.3077 50.2615 91.4014 48.7317 89.6686C47.2857 88.0306 46.7829 85.4853 46.7963 83.0615C46.803 81.8614 46.9363 80.7179 47.1292 79.7747C47.325 78.8173 47.5732 78.1108 47.7856 77.7568Z" fill="#F1DDA8"/>
<path d="M109.295 58.0034C104.923 58.5499 101.089 57.2019 98.5878 55.7979L96.4682 54.3682L99.0729 48.7246C99.7272 49.115 100.737 49.6533 101.699 49.9739C102.456 50.2261 104.704 50.8981 106.794 50.3587C107.86 50.0835 108.894 49.4909 109.653 48.3743C110.406 47.2662 110.857 45.6891 110.857 43.4995C110.857 41.2428 110.023 39.4832 108.737 38.2825C107.459 37.0887 105.759 36.4705 104.054 36.4371C102.349 36.4037 100.615 36.955 99.27 38.1309C97.9181 39.3127 96.9895 41.0988 96.8576 43.4718C96.745 45.4984 96.8302 47.9095 97.0487 50.6054L97.6564 56.4131C98.2867 61.4372 99.1405 66.3865 99.754 69.5277L90.3005 69.9778C89.6135 63.9602 88.2436 51.8423 87.8544 47.9498C87.4707 44.1126 87.0547 35.011 86.8757 30.4729L95.3569 30.0265V32.8085L98.0805 31.4467C98.1389 31.4175 98.2018 31.3853 98.2696 31.3505C98.7881 31.0845 99.5992 30.6684 100.987 30.2948C102.562 29.8707 104.892 29.4995 108.357 29.4995C111.639 29.4995 114.505 31.4929 116.574 34.4135C118.641 37.3323 119.857 41.107 119.857 44.4995C119.857 47.9354 119.12 51.0737 117.447 53.4628C115.786 55.8363 113.168 57.5192 109.295 58.0034Z" fill="#F1DDA8"/>
<path d="M143.993 81.8367C147.299 81.8367 151.257 83.1246 153.393 83.9995L152.5 86.6314L150.992 91.3563C150.096 90.9655 148.88 90.5324 147.629 90.2766C146.126 89.9694 144.428 89.8874 143.202 90.6073C140.397 92.2545 138.678 96.1105 140.389 99.4609C141.257 101.16 142.842 102.132 144.52 102.542C146.191 102.951 148.002 102.818 149.415 102.265C150.839 101.708 151.717 100.856 152.296 99.7926C152.86 98.7571 153.133 97.5331 153.393 96.2626C153.535 95.5667 153.599 94.1406 153.615 92.3777C153.63 90.7548 153.604 88.8023 153.55 86.7743L153.426 83.1205C153.284 79.6667 153.081 76.4159 152.877 74.6174C152.531 71.5661 152.16 69.2331 151.941 68.0228H161.3C161.66 71.1934 162.29 78.4313 162.29 85.4181V109.976H154.448V106.907C154.012 107.903 151.009 109.976 146.607 109.976C143.78 109.976 139.835 109.471 136.55 107.554C133.299 105.657 130.655 102.358 130.401 96.6517C130.125 90.436 132.656 86.7614 135.659 84.6211C138.695 82.4571 142.251 81.8367 143.993 81.8367Z" fill="#F1DDA8"/>
<path d="M131.515 43.8367C134.821 43.8367 138.779 45.1246 140.914 45.9995L140.022 48.6314L138.513 53.3563C137.618 52.9655 136.402 52.5324 135.15 52.2766C133.647 51.9694 131.949 51.8874 130.723 52.6073C127.918 54.2545 126.199 58.1105 127.911 61.4609C128.779 63.1604 130.363 64.1318 132.042 64.5424C133.713 64.9513 135.524 64.8182 136.937 64.2653C138.361 63.7077 139.238 62.8556 139.817 61.7926C140.382 60.7571 140.655 59.5331 140.914 58.2627C141.056 57.5667 141.121 56.1406 141.137 54.3777C141.152 52.7548 141.126 50.8023 141.072 48.7743L140.948 45.1205C140.806 41.6667 140.603 38.4159 140.398 36.6174C140.052 33.5661 139.681 31.2331 139.462 30.0228H148.822C149.182 33.1934 149.811 40.4313 149.811 47.4181V71.9763H141.97V68.9065C141.534 69.9026 138.531 71.9763 134.129 71.9763C131.301 71.9763 127.357 71.4707 124.072 69.5542C120.821 67.6573 118.176 64.3582 117.923 58.6517C117.647 52.436 120.178 48.7614 123.18 46.6211C126.216 44.4571 129.773 43.8367 131.515 43.8367Z" fill="#F1DDA8"/>
<path d="M151.357 40.4995L153.357 65.9995L161.357 65.4995C160.357 61.3329 158.657 52.4995 159.857 50.4995C161.357 47.9995 164.357 47.9995 165.857 48.9995C167.057 49.7995 166.857 50.9995 166.857 51.4995L172.857 49.4995C172.857 47.9995 172.957 45.5995 171.357 43.9995C169.357 41.9995 167.857 40.9995 163.857 40.9995C160.657 40.9995 159.19 42.3329 158.857 42.9995V39.9995L151.357 40.4995Z" fill="#F1DDA8"/>
<path d="M86.4221 72.9995L85.509 81.7625H81.8568L82.7699 90.0644H85.509C85.9655 96.3676 85.0525 108.513 92.8134 108.974C97.553 109.256 101.487 107.129 102.857 106.207L100.574 98.8274C99.3568 99.7498 95.7351 101.318 94.6394 100.211C93.5438 99.1041 94.1829 92.6779 94.1829 89.6031H101.487L101.944 81.7625H94.6394L96.009 73.9219L86.4221 72.9995Z" fill="#F1DDA8"/>
<path d="M127.928 79.9995H119.732C120.061 84.2669 120.922 92.5715 120.214 94.4226C119.506 96.2737 117.71 97.3072 115.875 97.3072C113.941 97.3072 111.267 96.4446 110.572 94.4226C109.607 92.0187 111.536 83.8457 112.982 79.9995H104.786C104.129 82.8377 102.825 89.4677 102.858 93.4611C102.897 98.2616 104.478 100.322 106.232 101.634C110.089 104.519 115.875 105.961 121.178 103.076V105H129.857L127.928 79.9995Z" fill="#F1DDA8"/>
<path d="M164.856 102.849L164.431 77.778H172.648V102.849H164.856Z" fill="#F1DDA8"/>
<path d="M191.857 45.9995C184.357 43.4995 177.357 43.9995 173.357 50.9995C169.357 57.9995 173.857 64.9995 177.357 67.4995C180.857 69.9995 182.857 69.9995 185.357 69.9995C187.357 69.9995 190.523 68.6662 191.857 67.9995V57.4995C190.857 61.9995 184.857 62.9995 181.857 60.9995C178.857 58.9995 179.357 54.9995 181.857 52.9995C183.857 51.3995 187.857 52.3329 189.857 52.9995L191.857 46.9995V45.9995Z" fill="#F1DDA8"/>
<path d="M191.857 67.9995V69.9995H199.857L198.857 43.4995L191.857 42.9995V45.9995V46.9995V57.4995V67.9995Z" fill="#F1DDA8"/>
<path d="M191.857 57.4995V46.9995V56.9995V57.4995Z" fill="#F1DDA8"/>
<path d="M202.857 42.4995C197.857 65.9995 203.357 70.9995 207.857 71.4995C211.457 71.8995 214.357 69.3329 215.357 67.9995C216.19 69.1662 218.557 71.4995 221.357 71.4995C224.857 71.4995 228.5 70.1073 230 66.1073C231.2 62.9073 231.167 55.774 231 52.6073L225.357 50.4995C225.357 54.9995 224.857 63.6995 222.857 62.4995C220.857 61.2995 221.857 56.3329 222.857 52.4995L214.857 50.9995C214.69 55.3329 214.157 60.8995 211.357 60.4995C208.557 60.0995 211.19 50.1662 212.857 45.4995L202.857 42.4995Z" fill="#F1DDA8"/>
<path fill-rule="evenodd" clip-rule="evenodd" d="M182.857 82.4995C196.857 78.9995 200.357 86.9995 200.857 88.9995C201.357 90.9995 202.857 101 195.857 103.5C188.857 106 178.857 106.5 175.357 98.9995C171.857 91.4995 178.357 83.9995 182.857 82.4995ZM187.357 98.4995C181.857 98.4995 180.357 89.4995 188.357 88.4995C191.357 88.1245 193.357 90.9995 193.357 92.9995C193.357 94.9995 192.857 98.4995 187.357 98.4995Z" fill="#F1DDA8"/>
<path d="M168.357 65.802C173.857 65.802 175.857 72.302 173.357 74.302C170.857 76.302 165.857 76.802 163.857 73.302C161.857 69.802 165.357 65.802 168.357 65.802Z" fill="#F1DDA8"/>
</g>
<defs>
<filter id="filter0_d_110_2" x="17" y="21" width="219.441" height="99.5057" filterUnits="userSpaceOnUse" color-interpolation-filters="sRGB">
<feFlood flood-opacity="0" result="BackgroundImageFix"/>
<feColorMatrix in="SourceAlpha" type="matrix" values="0 0 0 0 0 0 0 0 0 0 0 0 0 0 0 0 0 0 127 0" result="hardAlpha"/>
<feOffset dy="4"/>
<feGaussianBlur stdDeviation="2"/>
<feComposite in2="hardAlpha" operator="out"/>
<feColorMatrix type="matrix" values="0 0 0 0 0 0 0 0 0 0 0 0 0 0 0 0 0 0 0.25 0"/>
<feBlend mode="normal" in2="BackgroundImageFix" result="effect1_dropShadow_110_2"/>
<feBlend mode="normal" in="SourceGraphic" in2="effect1_dropShadow_110_2" result="shape"/>
</filter>
</defs>
</svg>
