<svg width="111" height="100" viewBox="0 0 111 100" fill="none" xmlns="http://www.w3.org/2000/svg">
    <path id="gato" fill-rule="evenodd" clip-rule="evenodd" d="M34.5065 90.4451V99.415H101.713V90.4451H84.9115V63.5354H76.5106V54.5656H101.713V36.6258H110.114V0.746269H101.713V9.71614H93.3123V18.686H42.9073V9.71614H34.5065V0.746269H26.1057V36.6258H34.5065V54.5656H51.3081V63.5354H42.9073V81.4752H26.1057V72.5053H17.7049V63.5354H9.30403V54.5656H17.7049V18.686H0.903198V27.6559H9.30403V36.6258H0.903198V72.5053H9.30403V81.4752H17.7049V90.4451H34.5065ZM59.709 36.6258V45.5957H42.9073V36.6258H59.709ZM93.3123 27.6559V45.5957H76.5106V27.6559H93.3123Z" fill="#F36210"/>
</svg>

