<svg width="70" height="71" viewBox="0 0 70 71" fill="none" xmlns="http://www.w3.org/2000/svg">
<g id="Group 22">
<g id="Group 10" filter="url(#filter0_d_68_144)">
<path id="Rectangle 24" d="M12 8H47.5L63.5 22.5L60 63H12V8Z" fill="#F1DDA8"/>
<g id="Subtract">
<path d="M44.8101 8H50.6962L66 23.125V63H53.443V34.8125H17.3418V63H4V8H17.3418V18.3125H44.8101V8Z" fill="#F36210"/>
<path d="M42.4557 8H37.7468V15.5625H42.4557V8Z" fill="#F36210"/>
</g>
</g>
<g id="Intersect" filter="url(#filter1_d_68_144)">
<path d="M33.7012 1.10927C34.4492 0.470398 35.5508 0.470398 36.2989 1.10927L53.8774 16.122C55.2908 17.329 54.4372 19.6429 52.5786 19.6429H46.5678C45.4632 19.6429 44.5678 20.5383 44.5678 21.6429V53C44.5678 54.1046 43.6723 55 42.5678 55H26.4584C25.3538 55 24.4584 54.1046 24.4584 53V21.6429C24.4584 20.5383 23.5629 19.6429 22.4584 19.6429H17.4215C15.5629 19.6429 14.7093 17.329 16.1226 16.122L33.7012 1.10927Z" fill="white"/>
</g>
</g>
<defs>
<filter id="filter0_d_68_144" x="0" y="8" width="70" height="63" filterUnits="userSpaceOnUse" color-interpolation-filters="sRGB">
<feFlood flood-opacity="0" result="BackgroundImageFix"/>
<feColorMatrix in="SourceAlpha" type="matrix" values="0 0 0 0 0 0 0 0 0 0 0 0 0 0 0 0 0 0 127 0" result="hardAlpha"/>
<feOffset dy="4"/>
<feGaussianBlur stdDeviation="2"/>
<feComposite in2="hardAlpha" operator="out"/>
<feColorMatrix type="matrix" values="0 0 0 0 0 0 0 0 0 0 0 0 0 0 0 0 0 0 0.25 0"/>
<feBlend mode="normal" in2="BackgroundImageFix" result="effect1_dropShadow_68_144"/>
<feBlend mode="normal" in="SourceGraphic" in2="effect1_dropShadow_68_144" result="shape"/>
</filter>
<filter id="filter1_d_68_144" x="11.4175" y="0.630127" width="47.1652" height="62.3699" filterUnits="userSpaceOnUse" color-interpolation-filters="sRGB">
<feFlood flood-opacity="0" result="BackgroundImageFix"/>
<feColorMatrix in="SourceAlpha" type="matrix" values="0 0 0 0 0 0 0 0 0 0 0 0 0 0 0 0 0 0 127 0" result="hardAlpha"/>
<feOffset dy="4"/>
<feGaussianBlur stdDeviation="2"/>
<feComposite in2="hardAlpha" operator="out"/>
<feColorMatrix type="matrix" values="0 0 0 0 0 0 0 0 0 0 0 0 0 0 0 0 0 0 0.25 0"/>
<feBlend mode="normal" in2="BackgroundImageFix" result="effect1_dropShadow_68_144"/>
<feBlend mode="normal" in="SourceGraphic" in2="effect1_dropShadow_68_144" result="shape"/>
</filter>
</defs>
</svg>
