<svg width="63" height="60" viewBox="0 0 63 60" fill="none" xmlns="http://www.w3.org/2000/svg">
<g id="NewFrame">
<path id="Subtract" fill-rule="evenodd" clip-rule="evenodd" d="M10 9.15527e-05C4.47715 9.15527e-05 0 4.47725 0 10.0001V36.087C0 41.6099 4.47716 46.087 10 46.087H16.9615V19.5653C16.9615 14.0425 21.4387 9.56531 26.9615 9.56531H41.183C40.9554 4.24417 36.5695 9.15527e-05 31.1923 9.15527e-05H10Z" fill="#F1DDA8"/>
<path id="Rectangle 16" d="M21.8077 23.9131C21.8077 18.3903 26.2849 13.9131 31.8077 13.9131H53C58.5229 13.9131 63 18.3903 63 23.9131V50.0001C63 55.5229 58.5229 60.0001 53 60.0001H31.8078C26.2849 60.0001 21.8077 55.5229 21.8077 50.0001V23.9131Z" fill="white"/>
</g>
</svg>
