<svg width="38" height="38" viewBox="0 0 38 38" fill="none" xmlns="http://www.w3.org/2000/svg">
<g id="Stop" filter="url(#filter0_d_62_97)">
<path id="Rectangle 20" d="M4 5.5C4 2.46243 6.46243 0 9.5 0C12.5376 0 15 2.46243 15 5.5V24.5C15 27.5376 12.5376 30 9.5 30C6.46243 30 4 27.5376 4 24.5V5.5Z" fill="#F1DDA8"/>
<path id="Rectangle 21" d="M23 5.5C23 2.46243 25.4624 0 28.5 0C31.5376 0 34 2.46243 34 5.5V24.5C34 27.5376 31.5376 30 28.5 30C25.4624 30 23 27.5376 23 24.5V5.5Z" fill="#F1DDA8"/>
</g>
<defs>
<filter id="filter0_d_62_97" x="0" y="0" width="38" height="38" filterUnits="userSpaceOnUse" color-interpolation-filters="sRGB">
<feFlood flood-opacity="0" result="BackgroundImageFix"/>
<feColorMatrix in="SourceAlpha" type="matrix" values="0 0 0 0 0 0 0 0 0 0 0 0 0 0 0 0 0 0 127 0" result="hardAlpha"/>
<feOffset dy="4"/>
<feGaussianBlur stdDeviation="2"/>
<feComposite in2="hardAlpha" operator="out"/>
<feColorMatrix type="matrix" values="0 0 0 0 0 0 0 0 0 0 0 0 0 0 0 0 0 0 0.25 0"/>
<feBlend mode="normal" in2="BackgroundImageFix" result="effect1_dropShadow_62_97"/>
<feBlend mode="normal" in="SourceGraphic" in2="effect1_dropShadow_62_97" result="shape"/>
</filter>
</defs>
</svg>
